<?xml version="1.0" encoding="UTF-8"?>
<svg xmlns="http://www.w3.org/2000/svg" version="1.1" viewBox="0 0 130 130">
  <defs>
    <style>
      .cls-1 {
        fill: none;
      }

      .cls-2 {
        fill: #e73b1f;
      }

      .cls-3 {
        fill: #1d3661;
      }
    </style>
  </defs>
  <!-- Generator: Adobe Illustrator 28.7.1, SVG Export Plug-In . SVG Version: 1.2.0 Build 142)  -->
  <g>
    <g id="Cloud">
      <rect class="cls-1" width="130" height="130"/>
      <g id="Cloud-2" data-name="Cloud">
        <path class="cls-3" d="M65,19c25.36,0,46,20.64,46,46s-20.64,46-46,46-46-20.64-46-46,20.64-46,46-46M65,15c-27.61,0-50,22.39-50,50s22.39,50,50,50,50-22.39,50-50S92.61,15,65,15h0Z"/>
        <path class="cls-2" d="M74.85,53.97l2.37,4.11-2.37,4.11h-4.74l-2.37-4.11,2.37-4.11h4.74M76.58,50.97h-8.21l-4.1,7.11,4.1,7.11h8.21l4.1-7.11-4.1-7.11h0Z"/>
        <path class="cls-3" d="M89.52,83.27h-51.29c-3.47-.19-10.02-3.19-10.02-13.17,0-3.26,1.06-5.87,3.16-7.76,2.76-2.5,6.63-3.01,8.91-3.08.55-2.31,2-6.29,5.75-9.26,4.19-3.32,8.91-3.28,11.27-2.97,2.96-4.41,9.81-10.52,19.19-8.27,9.18,2.2,12.53,10.01,13.24,15.02,4.93.93,12.05,4.65,12.05,14.08,0,10.34-7.9,14.58-12.08,15.38l-.19.04ZM38.42,79.27h50.69c1.23-.29,8.67-2.45,8.67-11.41,0-9.48-9.62-10.28-10.03-10.31l-1.81-.13-.05-1.81c-.01-.42-.46-10.59-10.33-12.96-9.89-2.37-15.29,7.15-15.52,7.56l-.76,1.38-1.52-.42c-.2-.05-5.11-1.31-9.25,1.97-4.14,3.28-4.57,8.26-4.57,8.31l-.16,2.04-2.04-.21s-4.98-.45-7.7,2.03c-1.23,1.12-1.83,2.68-1.83,4.79,0,8.28,5.37,9.1,6.21,9.17Z"/>
      </g>
    </g>
  </g>
</svg>